<mxfile host="app.diagrams.net" agent="Mozilla/5.0 (Macintosh; Intel Mac OS X 10_15_7) AppleWebKit/537.36 (KHTML, like Gecko) Chrome/139.0.0.0 Safari/537.36" version="28.1.2">
  <diagram name="Page-1" id="MR0FxMNDm2KQcicfPRyz">
    <mxGraphModel dx="2867" dy="1740" grid="1" gridSize="10" guides="1" tooltips="1" connect="1" arrows="1" fold="1" page="1" pageScale="1" pageWidth="850" pageHeight="1100" math="0" shadow="0">
      <root>
        <mxCell id="0" />
        <mxCell id="1" parent="0" />
        <mxCell id="sHRVWFCkF6h_d3TNH_xS-1" value="" style="edgeStyle=orthogonalEdgeStyle;rounded=0;orthogonalLoop=1;jettySize=auto;html=1;" edge="1" parent="1" source="sHRVWFCkF6h_d3TNH_xS-2" target="sHRVWFCkF6h_d3TNH_xS-4">
          <mxGeometry relative="1" as="geometry" />
        </mxCell>
        <mxCell id="sHRVWFCkF6h_d3TNH_xS-2" value="Start" style="ellipse;whiteSpace=wrap;html=1;" vertex="1" parent="1">
          <mxGeometry x="353" y="40" width="120" height="60" as="geometry" />
        </mxCell>
        <mxCell id="sHRVWFCkF6h_d3TNH_xS-3" style="edgeStyle=orthogonalEdgeStyle;rounded=0;orthogonalLoop=1;jettySize=auto;html=1;exitX=0.5;exitY=1;exitDx=0;exitDy=0;entryX=0.5;entryY=0;entryDx=0;entryDy=0;" edge="1" parent="1" source="sHRVWFCkF6h_d3TNH_xS-4" target="sHRVWFCkF6h_d3TNH_xS-6">
          <mxGeometry relative="1" as="geometry" />
        </mxCell>
        <mxCell id="sHRVWFCkF6h_d3TNH_xS-4" value="int i&amp;nbsp; &amp;lt;-- 0&lt;div&gt;&lt;span style=&quot;background-color: transparent; color: light-dark(rgb(0, 0, 0), rgb(255, 255, 255));&quot;&gt;int n &amp;lt;-- 0&lt;/span&gt;&lt;div&gt;&lt;span style=&quot;background-color: transparent; color: light-dark(rgb(0, 0, 0), rgb(255, 255, 255));&quot;&gt;int j &amp;lt;-- 0&lt;/span&gt;&lt;/div&gt;&lt;/div&gt;" style="whiteSpace=wrap;html=1;" vertex="1" parent="1">
          <mxGeometry x="336" y="180" width="155" height="60" as="geometry" />
        </mxCell>
        <mxCell id="sHRVWFCkF6h_d3TNH_xS-5" value="" style="edgeStyle=orthogonalEdgeStyle;rounded=0;orthogonalLoop=1;jettySize=auto;html=1;" edge="1" parent="1" source="sHRVWFCkF6h_d3TNH_xS-6" target="sHRVWFCkF6h_d3TNH_xS-11">
          <mxGeometry relative="1" as="geometry" />
        </mxCell>
        <mxCell id="sHRVWFCkF6h_d3TNH_xS-6" value="show &quot;Enter Number : &quot;" style="shape=parallelogram;perimeter=parallelogramPerimeter;whiteSpace=wrap;html=1;fixedSize=1;" vertex="1" parent="1">
          <mxGeometry x="321" y="280" width="185" height="60" as="geometry" />
        </mxCell>
        <mxCell id="sHRVWFCkF6h_d3TNH_xS-7" value="" style="edgeStyle=orthogonalEdgeStyle;rounded=0;orthogonalLoop=1;jettySize=auto;html=1;" edge="1" parent="1" source="sHRVWFCkF6h_d3TNH_xS-11" target="sHRVWFCkF6h_d3TNH_xS-16">
          <mxGeometry relative="1" as="geometry" />
        </mxCell>
        <mxCell id="sHRVWFCkF6h_d3TNH_xS-8" value="T" style="edgeLabel;html=1;align=center;verticalAlign=middle;resizable=0;points=[];" vertex="1" connectable="0" parent="sHRVWFCkF6h_d3TNH_xS-7">
          <mxGeometry x="-0.2836" y="1" relative="1" as="geometry">
            <mxPoint as="offset" />
          </mxGeometry>
        </mxCell>
        <mxCell id="sHRVWFCkF6h_d3TNH_xS-9" style="edgeStyle=orthogonalEdgeStyle;rounded=0;orthogonalLoop=1;jettySize=auto;html=1;exitX=1;exitY=0.5;exitDx=0;exitDy=0;entryX=0;entryY=0.5;entryDx=0;entryDy=0;" edge="1" parent="1" source="sHRVWFCkF6h_d3TNH_xS-11" target="sHRVWFCkF6h_d3TNH_xS-17">
          <mxGeometry relative="1" as="geometry" />
        </mxCell>
        <mxCell id="sHRVWFCkF6h_d3TNH_xS-10" value="F" style="edgeLabel;html=1;align=center;verticalAlign=middle;resizable=0;points=[];" vertex="1" connectable="0" parent="sHRVWFCkF6h_d3TNH_xS-9">
          <mxGeometry x="-0.0357" y="2" relative="1" as="geometry">
            <mxPoint as="offset" />
          </mxGeometry>
        </mxCell>
        <mxCell id="sHRVWFCkF6h_d3TNH_xS-11" value="รับค่าเป็นตัวเลขตัวเลข?" style="rhombus;whiteSpace=wrap;html=1;" vertex="1" parent="1">
          <mxGeometry x="322" y="380" width="182" height="80" as="geometry" />
        </mxCell>
        <mxCell id="sHRVWFCkF6h_d3TNH_xS-12" style="edgeStyle=orthogonalEdgeStyle;rounded=0;orthogonalLoop=1;jettySize=auto;html=1;exitX=1;exitY=0.5;exitDx=0;exitDy=0;entryX=0;entryY=0.5;entryDx=0;entryDy=0;" edge="1" parent="1" source="sHRVWFCkF6h_d3TNH_xS-16" target="sHRVWFCkF6h_d3TNH_xS-18">
          <mxGeometry relative="1" as="geometry" />
        </mxCell>
        <mxCell id="sHRVWFCkF6h_d3TNH_xS-13" value="F" style="edgeLabel;html=1;align=center;verticalAlign=middle;resizable=0;points=[];" vertex="1" connectable="0" parent="sHRVWFCkF6h_d3TNH_xS-12">
          <mxGeometry x="0.0476" y="-1" relative="1" as="geometry">
            <mxPoint x="1" as="offset" />
          </mxGeometry>
        </mxCell>
        <mxCell id="sHRVWFCkF6h_d3TNH_xS-14" value="" style="edgeStyle=orthogonalEdgeStyle;rounded=0;orthogonalLoop=1;jettySize=auto;html=1;entryX=0.5;entryY=0;entryDx=0;entryDy=0;" edge="1" parent="1" source="sHRVWFCkF6h_d3TNH_xS-16" target="sHRVWFCkF6h_d3TNH_xS-84">
          <mxGeometry relative="1" as="geometry">
            <mxPoint x="413" y="680" as="targetPoint" />
          </mxGeometry>
        </mxCell>
        <mxCell id="sHRVWFCkF6h_d3TNH_xS-15" value="T" style="edgeLabel;html=1;align=center;verticalAlign=middle;resizable=0;points=[];" vertex="1" connectable="0" parent="sHRVWFCkF6h_d3TNH_xS-14">
          <mxGeometry x="-0.2239" y="-1" relative="1" as="geometry">
            <mxPoint as="offset" />
          </mxGeometry>
        </mxCell>
        <mxCell id="sHRVWFCkF6h_d3TNH_xS-16" value="ตัวเลขที่กรอก &amp;gt;= 2" style="rhombus;whiteSpace=wrap;html=1;" vertex="1" parent="1">
          <mxGeometry x="326" y="510" width="174.5" height="80" as="geometry" />
        </mxCell>
        <mxCell id="sHRVWFCkF6h_d3TNH_xS-17" value="&lt;span&gt;&lt;font face=&quot;Helvetica&quot; style=&quot;color: light-dark(rgb(0, 0, 0), rgb(255, 255, 255));&quot;&gt;show &quot;&lt;span style=&quot;white-space: pre;&quot;&gt;ให้กรอกเฉพาะตัวเลขเท่านั้น&lt;/span&gt;&quot;&lt;/font&gt;&lt;/span&gt;" style="shape=parallelogram;perimeter=parallelogramPerimeter;whiteSpace=wrap;html=1;fixedSize=1;" vertex="1" parent="1">
          <mxGeometry x="538" y="390" width="240" height="60" as="geometry" />
        </mxCell>
        <mxCell id="sHRVWFCkF6h_d3TNH_xS-18" value="&lt;p&gt;&lt;font style=&quot;color: light-dark(rgb(0, 0, 0), rgb(255, 255, 255));&quot; face=&quot;Helvetica&quot;&gt;&lt;font style=&quot;&quot;&gt;show &quot;&lt;/font&gt;&lt;span style=&quot;white-space: pre;&quot;&gt;ไม่มีจำนวนเฉพาะในช่วง 1 ถึง ...&lt;/span&gt;&quot;&lt;/font&gt;&lt;/p&gt;" style="shape=parallelogram;perimeter=parallelogramPerimeter;whiteSpace=wrap;html=1;fixedSize=1;" vertex="1" parent="1">
          <mxGeometry x="538" y="520" width="240" height="60" as="geometry" />
        </mxCell>
        <mxCell id="sHRVWFCkF6h_d3TNH_xS-86" value="" style="edgeStyle=orthogonalEdgeStyle;rounded=0;orthogonalLoop=1;jettySize=auto;html=1;" edge="1" parent="1" source="sHRVWFCkF6h_d3TNH_xS-84" target="sHRVWFCkF6h_d3TNH_xS-85">
          <mxGeometry relative="1" as="geometry" />
        </mxCell>
        <mxCell id="sHRVWFCkF6h_d3TNH_xS-84" value="show &quot;จำนวนเฉพาะ : &quot;" style="shape=parallelogram;perimeter=parallelogramPerimeter;whiteSpace=wrap;html=1;fixedSize=1;" vertex="1" parent="1">
          <mxGeometry x="319.75" y="690" width="187.5" height="60" as="geometry" />
        </mxCell>
        <mxCell id="sHRVWFCkF6h_d3TNH_xS-88" value="" style="edgeStyle=orthogonalEdgeStyle;rounded=0;orthogonalLoop=1;jettySize=auto;html=1;entryX=0.5;entryY=0;entryDx=0;entryDy=0;" edge="1" parent="1" source="sHRVWFCkF6h_d3TNH_xS-85" target="sHRVWFCkF6h_d3TNH_xS-145">
          <mxGeometry relative="1" as="geometry">
            <mxPoint x="413.5" y="917.5" as="targetPoint" />
          </mxGeometry>
        </mxCell>
        <mxCell id="sHRVWFCkF6h_d3TNH_xS-85" value="i &amp;lt;-- n" style="whiteSpace=wrap;html=1;" vertex="1" parent="1">
          <mxGeometry x="353.5" y="810" width="120" height="60" as="geometry" />
        </mxCell>
        <mxCell id="sHRVWFCkF6h_d3TNH_xS-144" style="edgeStyle=orthogonalEdgeStyle;rounded=0;orthogonalLoop=1;jettySize=auto;html=1;exitX=0.5;exitY=1;exitDx=0;exitDy=0;entryX=0.5;entryY=0;entryDx=0;entryDy=0;" edge="1" parent="1" source="sHRVWFCkF6h_d3TNH_xS-145" target="sHRVWFCkF6h_d3TNH_xS-150">
          <mxGeometry relative="1" as="geometry" />
        </mxCell>
        <mxCell id="sHRVWFCkF6h_d3TNH_xS-145" value="" style="ellipse;whiteSpace=wrap;html=1;" vertex="1" parent="1">
          <mxGeometry x="399" y="927" width="30" height="30" as="geometry" />
        </mxCell>
        <mxCell id="sHRVWFCkF6h_d3TNH_xS-146" value="" style="edgeStyle=orthogonalEdgeStyle;rounded=0;orthogonalLoop=1;jettySize=auto;html=1;entryX=0.5;entryY=0;entryDx=0;entryDy=0;" edge="1" parent="1" source="sHRVWFCkF6h_d3TNH_xS-150" target="sHRVWFCkF6h_d3TNH_xS-152">
          <mxGeometry relative="1" as="geometry">
            <mxPoint x="414.5" y="1127" as="targetPoint" />
          </mxGeometry>
        </mxCell>
        <mxCell id="sHRVWFCkF6h_d3TNH_xS-147" value="T" style="edgeLabel;html=1;align=center;verticalAlign=middle;resizable=0;points=[];" vertex="1" connectable="0" parent="sHRVWFCkF6h_d3TNH_xS-146">
          <mxGeometry x="-0.0599" y="1" relative="1" as="geometry">
            <mxPoint as="offset" />
          </mxGeometry>
        </mxCell>
        <mxCell id="sHRVWFCkF6h_d3TNH_xS-148" style="edgeStyle=orthogonalEdgeStyle;rounded=0;orthogonalLoop=1;jettySize=auto;html=1;exitX=1;exitY=0.5;exitDx=0;exitDy=0;entryX=0;entryY=0.5;entryDx=0;entryDy=0;" edge="1" parent="1" source="sHRVWFCkF6h_d3TNH_xS-150" target="sHRVWFCkF6h_d3TNH_xS-183">
          <mxGeometry relative="1" as="geometry" />
        </mxCell>
        <mxCell id="sHRVWFCkF6h_d3TNH_xS-149" value="F" style="edgeLabel;html=1;align=center;verticalAlign=middle;resizable=0;points=[];" vertex="1" connectable="0" parent="sHRVWFCkF6h_d3TNH_xS-148">
          <mxGeometry x="-0.0834" y="4" relative="1" as="geometry">
            <mxPoint as="offset" />
          </mxGeometry>
        </mxCell>
        <mxCell id="sHRVWFCkF6h_d3TNH_xS-150" value="i &amp;gt;= 2 ?" style="rhombus;whiteSpace=wrap;html=1;" vertex="1" parent="1">
          <mxGeometry x="372" y="998" width="85" height="80" as="geometry" />
        </mxCell>
        <mxCell id="sHRVWFCkF6h_d3TNH_xS-151" style="edgeStyle=orthogonalEdgeStyle;rounded=0;orthogonalLoop=1;jettySize=auto;html=1;exitX=0.5;exitY=1;exitDx=0;exitDy=0;entryX=0.5;entryY=0;entryDx=0;entryDy=0;" edge="1" parent="1" source="sHRVWFCkF6h_d3TNH_xS-152" target="sHRVWFCkF6h_d3TNH_xS-166">
          <mxGeometry relative="1" as="geometry" />
        </mxCell>
        <mxCell id="sHRVWFCkF6h_d3TNH_xS-152" value="ให้ j &amp;lt;-- 2" style="whiteSpace=wrap;html=1;" vertex="1" parent="1">
          <mxGeometry x="354.5" y="1131" width="120" height="60" as="geometry" />
        </mxCell>
        <mxCell id="sHRVWFCkF6h_d3TNH_xS-153" value="" style="edgeStyle=orthogonalEdgeStyle;rounded=0;orthogonalLoop=1;jettySize=auto;html=1;" edge="1" parent="1" target="sHRVWFCkF6h_d3TNH_xS-162">
          <mxGeometry relative="1" as="geometry">
            <mxPoint x="414.53846153846143" y="1406.0015384615385" as="sourcePoint" />
          </mxGeometry>
        </mxCell>
        <mxCell id="sHRVWFCkF6h_d3TNH_xS-154" value="T" style="edgeLabel;html=1;align=center;verticalAlign=middle;resizable=0;points=[];" vertex="1" connectable="0" parent="sHRVWFCkF6h_d3TNH_xS-153">
          <mxGeometry x="-0.2439" relative="1" as="geometry">
            <mxPoint as="offset" />
          </mxGeometry>
        </mxCell>
        <mxCell id="sHRVWFCkF6h_d3TNH_xS-155" style="edgeStyle=orthogonalEdgeStyle;rounded=0;orthogonalLoop=1;jettySize=auto;html=1;exitX=1;exitY=0.5;exitDx=0;exitDy=0;entryX=1;entryY=0.5;entryDx=0;entryDy=0;" edge="1" parent="1" source="sHRVWFCkF6h_d3TNH_xS-157" target="sHRVWFCkF6h_d3TNH_xS-176">
          <mxGeometry relative="1" as="geometry">
            <Array as="points">
              <mxPoint x="519" y="1366" />
              <mxPoint x="519" y="1611" />
            </Array>
          </mxGeometry>
        </mxCell>
        <mxCell id="sHRVWFCkF6h_d3TNH_xS-156" value="F" style="edgeLabel;html=1;align=center;verticalAlign=middle;resizable=0;points=[];" vertex="1" connectable="0" parent="sHRVWFCkF6h_d3TNH_xS-155">
          <mxGeometry x="-0.06" y="-1" relative="1" as="geometry">
            <mxPoint y="1" as="offset" />
          </mxGeometry>
        </mxCell>
        <mxCell id="sHRVWFCkF6h_d3TNH_xS-157" value="j &amp;lt; i ?" style="rhombus;whiteSpace=wrap;html=1;" vertex="1" parent="1">
          <mxGeometry x="374.5" y="1326" width="80" height="80" as="geometry" />
        </mxCell>
        <mxCell id="sHRVWFCkF6h_d3TNH_xS-158" style="edgeStyle=orthogonalEdgeStyle;rounded=0;orthogonalLoop=1;jettySize=auto;html=1;exitX=0.5;exitY=1;exitDx=0;exitDy=0;entryX=0.5;entryY=0;entryDx=0;entryDy=0;" edge="1" parent="1" source="sHRVWFCkF6h_d3TNH_xS-162" target="sHRVWFCkF6h_d3TNH_xS-176">
          <mxGeometry relative="1" as="geometry" />
        </mxCell>
        <mxCell id="sHRVWFCkF6h_d3TNH_xS-159" value="T" style="edgeLabel;html=1;align=center;verticalAlign=middle;resizable=0;points=[];" vertex="1" connectable="0" parent="sHRVWFCkF6h_d3TNH_xS-158">
          <mxGeometry x="0.0065" y="1" relative="1" as="geometry">
            <mxPoint x="-1" as="offset" />
          </mxGeometry>
        </mxCell>
        <mxCell id="sHRVWFCkF6h_d3TNH_xS-160" style="edgeStyle=orthogonalEdgeStyle;rounded=0;orthogonalLoop=1;jettySize=auto;html=1;exitX=0;exitY=0.5;exitDx=0;exitDy=0;entryX=1;entryY=0.5;entryDx=0;entryDy=0;" edge="1" parent="1" source="sHRVWFCkF6h_d3TNH_xS-162" target="sHRVWFCkF6h_d3TNH_xS-189">
          <mxGeometry relative="1" as="geometry" />
        </mxCell>
        <mxCell id="sHRVWFCkF6h_d3TNH_xS-161" value="F" style="edgeLabel;html=1;align=center;verticalAlign=middle;resizable=0;points=[];" vertex="1" connectable="0" parent="sHRVWFCkF6h_d3TNH_xS-160">
          <mxGeometry x="0.033" y="-1" relative="1" as="geometry">
            <mxPoint as="offset" />
          </mxGeometry>
        </mxCell>
        <mxCell id="sHRVWFCkF6h_d3TNH_xS-162" value="i หาร j แล้วไม่มีเศษ?" style="rhombus;whiteSpace=wrap;html=1;" vertex="1" parent="1">
          <mxGeometry x="347" y="1471.04" width="134.5" height="80" as="geometry" />
        </mxCell>
        <mxCell id="sHRVWFCkF6h_d3TNH_xS-163" style="edgeStyle=orthogonalEdgeStyle;rounded=0;orthogonalLoop=1;jettySize=auto;html=1;exitX=0.5;exitY=0;exitDx=0;exitDy=0;entryX=0.5;entryY=1;entryDx=0;entryDy=0;" edge="1" parent="1" source="sHRVWFCkF6h_d3TNH_xS-164" target="sHRVWFCkF6h_d3TNH_xS-193">
          <mxGeometry relative="1" as="geometry" />
        </mxCell>
        <mxCell id="sHRVWFCkF6h_d3TNH_xS-164" value="j &amp;lt;-- j + 1" style="whiteSpace=wrap;html=1;" vertex="1" parent="1">
          <mxGeometry x="202" y="1357" width="120" height="60" as="geometry" />
        </mxCell>
        <mxCell id="sHRVWFCkF6h_d3TNH_xS-165" style="edgeStyle=orthogonalEdgeStyle;rounded=0;orthogonalLoop=1;jettySize=auto;html=1;exitX=0.5;exitY=1;exitDx=0;exitDy=0;entryX=0.5;entryY=0;entryDx=0;entryDy=0;" edge="1" parent="1" source="sHRVWFCkF6h_d3TNH_xS-166" target="sHRVWFCkF6h_d3TNH_xS-157">
          <mxGeometry relative="1" as="geometry" />
        </mxCell>
        <mxCell id="sHRVWFCkF6h_d3TNH_xS-166" value="" style="ellipse;whiteSpace=wrap;html=1;" vertex="1" parent="1">
          <mxGeometry x="399" y="1246" width="30" height="30" as="geometry" />
        </mxCell>
        <mxCell id="sHRVWFCkF6h_d3TNH_xS-167" style="edgeStyle=orthogonalEdgeStyle;rounded=0;orthogonalLoop=1;jettySize=auto;html=1;exitX=0.5;exitY=1;exitDx=0;exitDy=0;entryX=0.5;entryY=0;entryDx=0;entryDy=0;" edge="1" parent="1" source="sHRVWFCkF6h_d3TNH_xS-171" target="sHRVWFCkF6h_d3TNH_xS-173">
          <mxGeometry relative="1" as="geometry" />
        </mxCell>
        <mxCell id="sHRVWFCkF6h_d3TNH_xS-168" value="T" style="edgeLabel;html=1;align=center;verticalAlign=middle;resizable=0;points=[];" vertex="1" connectable="0" parent="sHRVWFCkF6h_d3TNH_xS-167">
          <mxGeometry x="-0.1772" y="-1" relative="1" as="geometry">
            <mxPoint as="offset" />
          </mxGeometry>
        </mxCell>
        <mxCell id="sHRVWFCkF6h_d3TNH_xS-169" style="edgeStyle=orthogonalEdgeStyle;rounded=0;orthogonalLoop=1;jettySize=auto;html=1;exitX=0;exitY=0.5;exitDx=0;exitDy=0;entryX=1;entryY=0.5;entryDx=0;entryDy=0;" edge="1" parent="1" source="sHRVWFCkF6h_d3TNH_xS-171" target="sHRVWFCkF6h_d3TNH_xS-191">
          <mxGeometry relative="1" as="geometry">
            <mxPoint x="309" y="1717" as="targetPoint" />
          </mxGeometry>
        </mxCell>
        <mxCell id="sHRVWFCkF6h_d3TNH_xS-170" value="F" style="edgeLabel;html=1;align=center;verticalAlign=middle;resizable=0;points=[];" vertex="1" connectable="0" parent="sHRVWFCkF6h_d3TNH_xS-169">
          <mxGeometry x="-0.1065" y="-1" relative="1" as="geometry">
            <mxPoint as="offset" />
          </mxGeometry>
        </mxCell>
        <mxCell id="sHRVWFCkF6h_d3TNH_xS-171" value="j == i" style="rhombus;whiteSpace=wrap;html=1;" vertex="1" parent="1">
          <mxGeometry x="374.25" y="1675" width="80" height="80" as="geometry" />
        </mxCell>
        <mxCell id="sHRVWFCkF6h_d3TNH_xS-172" style="edgeStyle=orthogonalEdgeStyle;rounded=0;orthogonalLoop=1;jettySize=auto;html=1;exitX=0;exitY=0.5;exitDx=0;exitDy=0;entryX=1;entryY=0.5;entryDx=0;entryDy=0;" edge="1" parent="1" source="sHRVWFCkF6h_d3TNH_xS-173" target="sHRVWFCkF6h_d3TNH_xS-187">
          <mxGeometry relative="1" as="geometry" />
        </mxCell>
        <mxCell id="sHRVWFCkF6h_d3TNH_xS-173" value="show แสดงค่า i ในแต่ละรอบ" style="shape=parallelogram;perimeter=parallelogramPerimeter;whiteSpace=wrap;html=1;fixedSize=1;" vertex="1" parent="1">
          <mxGeometry x="327" y="1815" width="175" height="60" as="geometry" />
        </mxCell>
        <mxCell id="sHRVWFCkF6h_d3TNH_xS-174" style="edgeStyle=orthogonalEdgeStyle;rounded=0;orthogonalLoop=1;jettySize=auto;html=1;exitX=0.5;exitY=0;exitDx=0;exitDy=0;entryX=0.5;entryY=1;entryDx=0;entryDy=0;" edge="1" parent="1" target="sHRVWFCkF6h_d3TNH_xS-185">
          <mxGeometry relative="1" as="geometry">
            <mxPoint x="89" y="1357" as="sourcePoint" />
          </mxGeometry>
        </mxCell>
        <mxCell id="sHRVWFCkF6h_d3TNH_xS-175" style="edgeStyle=orthogonalEdgeStyle;rounded=0;orthogonalLoop=1;jettySize=auto;html=1;exitX=0.5;exitY=1;exitDx=0;exitDy=0;entryX=0.5;entryY=0;entryDx=0;entryDy=0;" edge="1" parent="1" source="sHRVWFCkF6h_d3TNH_xS-176" target="sHRVWFCkF6h_d3TNH_xS-171">
          <mxGeometry relative="1" as="geometry" />
        </mxCell>
        <mxCell id="sHRVWFCkF6h_d3TNH_xS-176" value="" style="ellipse;whiteSpace=wrap;html=1;" vertex="1" parent="1">
          <mxGeometry x="399.5" y="1596" width="30" height="30" as="geometry" />
        </mxCell>
        <mxCell id="sHRVWFCkF6h_d3TNH_xS-177" style="edgeStyle=orthogonalEdgeStyle;rounded=0;orthogonalLoop=1;jettySize=auto;html=1;exitX=0.5;exitY=1;exitDx=0;exitDy=0;entryX=0.5;entryY=0;entryDx=0;entryDy=0;" edge="1" parent="1" source="sHRVWFCkF6h_d3TNH_xS-178" target="sHRVWFCkF6h_d3TNH_xS-181">
          <mxGeometry relative="1" as="geometry" />
        </mxCell>
        <mxCell id="sHRVWFCkF6h_d3TNH_xS-178" value="" style="ellipse;whiteSpace=wrap;html=1;" vertex="1" parent="1">
          <mxGeometry x="399" y="1957" width="30" height="30" as="geometry" />
        </mxCell>
        <mxCell id="sHRVWFCkF6h_d3TNH_xS-179" style="edgeStyle=orthogonalEdgeStyle;rounded=0;orthogonalLoop=1;jettySize=auto;html=1;exitX=0;exitY=0.5;exitDx=0;exitDy=0;entryX=1;entryY=0.5;entryDx=0;entryDy=0;" edge="1" parent="1" source="sHRVWFCkF6h_d3TNH_xS-180" target="sHRVWFCkF6h_d3TNH_xS-178">
          <mxGeometry relative="1" as="geometry" />
        </mxCell>
        <mxCell id="sHRVWFCkF6h_d3TNH_xS-180" value="" style="ellipse;whiteSpace=wrap;html=1;" vertex="1" parent="1">
          <mxGeometry x="794" y="1957" width="30" height="30" as="geometry" />
        </mxCell>
        <mxCell id="sHRVWFCkF6h_d3TNH_xS-181" value="End" style="ellipse;whiteSpace=wrap;html=1;" vertex="1" parent="1">
          <mxGeometry x="368.5" y="2027" width="90" height="60" as="geometry" />
        </mxCell>
        <mxCell id="sHRVWFCkF6h_d3TNH_xS-182" style="edgeStyle=orthogonalEdgeStyle;rounded=0;orthogonalLoop=1;jettySize=auto;html=1;exitX=0.5;exitY=1;exitDx=0;exitDy=0;entryX=0.5;entryY=0;entryDx=0;entryDy=0;" edge="1" parent="1" source="sHRVWFCkF6h_d3TNH_xS-183" target="sHRVWFCkF6h_d3TNH_xS-180">
          <mxGeometry relative="1" as="geometry">
            <Array as="points">
              <mxPoint x="809" y="1053" />
              <mxPoint x="809" y="1957" />
            </Array>
          </mxGeometry>
        </mxCell>
        <mxCell id="sHRVWFCkF6h_d3TNH_xS-183" value="" style="ellipse;whiteSpace=wrap;html=1;" vertex="1" parent="1">
          <mxGeometry x="794" y="1023" width="30" height="30" as="geometry" />
        </mxCell>
        <mxCell id="sHRVWFCkF6h_d3TNH_xS-184" style="edgeStyle=orthogonalEdgeStyle;rounded=0;orthogonalLoop=1;jettySize=auto;html=1;exitX=1;exitY=0.5;exitDx=0;exitDy=0;entryX=0;entryY=0.5;entryDx=0;entryDy=0;" edge="1" parent="1" source="sHRVWFCkF6h_d3TNH_xS-185" target="sHRVWFCkF6h_d3TNH_xS-145">
          <mxGeometry relative="1" as="geometry" />
        </mxCell>
        <mxCell id="sHRVWFCkF6h_d3TNH_xS-185" value="" style="ellipse;whiteSpace=wrap;html=1;" vertex="1" parent="1">
          <mxGeometry x="74" y="927" width="30" height="30" as="geometry" />
        </mxCell>
        <mxCell id="sHRVWFCkF6h_d3TNH_xS-186" style="edgeStyle=orthogonalEdgeStyle;rounded=0;orthogonalLoop=1;jettySize=auto;html=1;exitX=0.5;exitY=0;exitDx=0;exitDy=0;entryX=0.5;entryY=1;entryDx=0;entryDy=0;" edge="1" parent="1" source="sHRVWFCkF6h_d3TNH_xS-187" target="sHRVWFCkF6h_d3TNH_xS-191">
          <mxGeometry relative="1" as="geometry" />
        </mxCell>
        <mxCell id="sHRVWFCkF6h_d3TNH_xS-187" value="" style="ellipse;whiteSpace=wrap;html=1;" vertex="1" parent="1">
          <mxGeometry x="74" y="1830" width="30" height="30" as="geometry" />
        </mxCell>
        <mxCell id="sHRVWFCkF6h_d3TNH_xS-188" style="edgeStyle=orthogonalEdgeStyle;rounded=0;orthogonalLoop=1;jettySize=auto;html=1;exitX=0.5;exitY=0;exitDx=0;exitDy=0;entryX=0.5;entryY=1;entryDx=0;entryDy=0;" edge="1" parent="1" source="sHRVWFCkF6h_d3TNH_xS-189" target="sHRVWFCkF6h_d3TNH_xS-164">
          <mxGeometry relative="1" as="geometry" />
        </mxCell>
        <mxCell id="sHRVWFCkF6h_d3TNH_xS-189" value="" style="ellipse;whiteSpace=wrap;html=1;" vertex="1" parent="1">
          <mxGeometry x="247" y="1496.04" width="30" height="30" as="geometry" />
        </mxCell>
        <mxCell id="sHRVWFCkF6h_d3TNH_xS-190" style="edgeStyle=orthogonalEdgeStyle;rounded=0;orthogonalLoop=1;jettySize=auto;html=1;exitX=0.5;exitY=0;exitDx=0;exitDy=0;entryX=0.5;entryY=1;entryDx=0;entryDy=0;" edge="1" parent="1" source="sHRVWFCkF6h_d3TNH_xS-191">
          <mxGeometry relative="1" as="geometry">
            <mxPoint x="89" y="1417" as="targetPoint" />
          </mxGeometry>
        </mxCell>
        <mxCell id="sHRVWFCkF6h_d3TNH_xS-191" value="" style="ellipse;whiteSpace=wrap;html=1;" vertex="1" parent="1">
          <mxGeometry x="74" y="1700" width="30" height="30" as="geometry" />
        </mxCell>
        <mxCell id="sHRVWFCkF6h_d3TNH_xS-192" style="edgeStyle=orthogonalEdgeStyle;rounded=0;orthogonalLoop=1;jettySize=auto;html=1;exitX=1;exitY=0.5;exitDx=0;exitDy=0;entryX=0;entryY=0.5;entryDx=0;entryDy=0;" edge="1" parent="1" source="sHRVWFCkF6h_d3TNH_xS-193" target="sHRVWFCkF6h_d3TNH_xS-166">
          <mxGeometry relative="1" as="geometry" />
        </mxCell>
        <mxCell id="sHRVWFCkF6h_d3TNH_xS-193" value="" style="ellipse;whiteSpace=wrap;html=1;" vertex="1" parent="1">
          <mxGeometry x="247" y="1246" width="30" height="30" as="geometry" />
        </mxCell>
        <mxCell id="sHRVWFCkF6h_d3TNH_xS-194" value="" style="strokeWidth=2;html=1;shape=mxgraph.flowchart.annotation_2;align=left;labelPosition=right;pointerEvents=1;" vertex="1" parent="1">
          <mxGeometry x="297" y="998" width="50" height="100" as="geometry" />
        </mxCell>
        <mxCell id="sHRVWFCkF6h_d3TNH_xS-195" value="i น้อยกว่า&amp;nbsp; 2&lt;div&gt;ให้ออกจาก Loop&lt;span style=&quot;background-color: transparent; color: light-dark(rgb(0, 0, 0), rgb(255, 255, 255));&quot;&gt;&amp;nbsp;&lt;/span&gt;&lt;/div&gt;" style="text;html=1;align=center;verticalAlign=middle;whiteSpace=wrap;rounded=0;" vertex="1" parent="1">
          <mxGeometry x="139" y="1033" width="150" height="30" as="geometry" />
        </mxCell>
        <mxCell id="sHRVWFCkF6h_d3TNH_xS-196" value="" style="strokeWidth=2;html=1;shape=mxgraph.flowchart.annotation_2;align=left;labelPosition=right;pointerEvents=1;rotation=-180;" vertex="1" parent="1">
          <mxGeometry x="502" y="1117" width="50" height="100" as="geometry" />
        </mxCell>
        <mxCell id="sHRVWFCkF6h_d3TNH_xS-197" value="กำหนดให้ j เท่ากับ 2 เพราะ 2 เป็นจำนวนเฉพาะตัวแรก" style="text;html=1;align=center;verticalAlign=middle;whiteSpace=wrap;rounded=0;" vertex="1" parent="1">
          <mxGeometry x="569" y="1152" width="150" height="30" as="geometry" />
        </mxCell>
        <mxCell id="sHRVWFCkF6h_d3TNH_xS-198" value="" style="strokeWidth=2;html=1;shape=mxgraph.flowchart.annotation_2;align=left;labelPosition=right;pointerEvents=1;rotation=-180;" vertex="1" parent="1">
          <mxGeometry x="552" y="1335" width="50" height="291" as="geometry" />
        </mxCell>
        <mxCell id="sHRVWFCkF6h_d3TNH_xS-199" value="วนหาตัวหารอื่นนอกจาก 1 และ ตัวมันเอง ถ้า i หาร j แล้วไม่มีเศษ ให้ออกจาก Loop" style="text;html=1;align=center;verticalAlign=middle;whiteSpace=wrap;rounded=0;" vertex="1" parent="1">
          <mxGeometry x="619" y="1466.04" width="150" height="30" as="geometry" />
        </mxCell>
        <mxCell id="sHRVWFCkF6h_d3TNH_xS-200" value="" style="strokeWidth=2;html=1;shape=mxgraph.flowchart.annotation_2;align=left;labelPosition=right;pointerEvents=1;rotation=-180;" vertex="1" parent="1">
          <mxGeometry x="505" y="1686" width="50" height="58" as="geometry" />
        </mxCell>
        <mxCell id="sHRVWFCkF6h_d3TNH_xS-201" value="ตรวจสอบว่า ไม่มีตัวหารอื่นนอกจาก i (ตัวมันเอง) คือจำนวนเฉพาะ" style="text;html=1;align=center;verticalAlign=middle;whiteSpace=wrap;rounded=0;" vertex="1" parent="1">
          <mxGeometry x="579" y="1700" width="180" height="30" as="geometry" />
        </mxCell>
        <mxCell id="sHRVWFCkF6h_d3TNH_xS-202" value="" style="strokeWidth=2;html=1;shape=mxgraph.flowchart.annotation_2;align=left;labelPosition=right;pointerEvents=1;rotation=-180;" vertex="1" parent="1">
          <mxGeometry x="539" y="1815" width="50" height="58" as="geometry" />
        </mxCell>
        <mxCell id="sHRVWFCkF6h_d3TNH_xS-203" value="แสดงค่า i ในแต่ละรอบ" style="text;html=1;align=center;verticalAlign=middle;whiteSpace=wrap;rounded=0;" vertex="1" parent="1">
          <mxGeometry x="604" y="1829" width="180" height="30" as="geometry" />
        </mxCell>
        <mxCell id="sHRVWFCkF6h_d3TNH_xS-204" value="i &amp;lt;-- i - 1" style="whiteSpace=wrap;html=1;" vertex="1" parent="1">
          <mxGeometry x="29" y="1357" width="120" height="60" as="geometry" />
        </mxCell>
      </root>
    </mxGraphModel>
  </diagram>
</mxfile>
